<?xml version="1.0" encoding="utf-8"?>
<svg version="1.1" id="Layer_1" xmlns="http://www.w3.org/2000/svg" xmlns:xlink="http://www.w3.org/1999/xlink" x="0px" y="0px"
	 viewBox="0 0 30 30" style="enable-background:new 0 0 30 30;" xml:space="preserve">
<style type="text/css">
	.st1{fill:#FFFFFF;}
</style>
<path class="st1" d="M9,3.5c-0.5,0-1.2,0.2-1.1-0.6c0-0.5,0.7-0.4,1.1-0.4c6.4,0,12.9,0,19.3,0c0.5,0,1.2-0.2,1.1,0.6
	c0,0.5-0.7,0.4-1.1,0.4C25,3.5,12.1,3.5,9,3.5z"/>
<path class="st1" d="M28.1,10.5c0.5,0,1.2-0.2,1.3,0.4c0,0.8-0.8,0.5-1.3,0.5c-6.3,0-12.6,0-19,0c-0.5,0-1.2,0.2-1.3-0.4
	c0-0.8,0.8-0.5,1.3-0.5C12.3,10.5,25,10.5,28.1,10.5z"/>
<path class="st1" d="M28.1,18.5c0.5,0,1.2-0.2,1.3,0.4c0,0.8-0.8,0.6-1.3,0.6c-6.3,0-12.6,0-19,0c-0.5,0-1.2,0.2-1.3-0.4
	c0-0.8,0.8-0.5,1.3-0.6C12.3,18.5,24.9,18.5,28.1,18.5z"/>
<path class="st1" d="M8.9,27.5c-0.4,0-1.1,0.1-1.1-0.5c0-0.6,0.6-0.5,1-0.5c5.2,0,10.3,0,15.5,0c0.4,0,1.1-0.1,1.1,0.5
	c0,0.7-0.7,0.5-1.2,0.5C21.7,27.5,11.5,27.5,8.9,27.5z"/>
<path class="st1" d="M3.2,0.5C1.8,0.5,0.6,1.6,0.6,3c0,1.4,1.1,2.5,2.5,2.5s2.5-1.2,2.5-2.6C5.6,1.6,4.5,0.5,3.2,0.5z M3.1,4.5
	C2.2,4.5,1.6,3.9,1.6,3c0-0.9,0.6-1.4,1.4-1.5C4,1.6,4.6,2.1,4.6,3C4.6,3.9,4,4.5,3.1,4.5z"/>
<path class="st1" d="M3.1,8.5c-1.4,0-2.5,1.2-2.4,2.6c0,1.3,1.1,2.4,2.5,2.4c1.4,0,2.5-1.1,2.5-2.5S4.4,8.5,3.1,8.5z M3.1,12.5
	c-0.9,0-1.5-0.6-1.5-1.5c0-0.9,0.6-1.5,1.5-1.5c0.9,0,1.4,0.6,1.5,1.5C4.5,11.9,4,12.5,3.1,12.5z"/>
<path class="st1" d="M3.1,16.5c-1.3,0-2.4,1.1-2.4,2.4c-0.1,1.4,1.1,2.6,2.4,2.6c1.4,0,2.5-1.1,2.5-2.5C5.6,17.6,4.5,16.5,3.1,16.5z
	 M3.2,20.5c-0.9,0-1.5-0.5-1.5-1.4c0-0.9,0.5-1.5,1.4-1.5c0.9,0,1.4,0.5,1.6,1.4C4.5,19.8,4.1,20.4,3.2,20.5z"/>
<path class="st1" d="M3.1,24.5c-1.3,0-2.4,1-2.5,2.3c-0.1,1.4,1,2.6,2.4,2.7c1.4,0.1,2.6-1,2.6-2.4C5.6,25.7,4.5,24.5,3.1,24.5z
	 M3,28.5c-0.9-0.1-1.4-0.6-1.4-1.5c0-0.9,0.6-1.4,1.5-1.4c0.9,0,1.3,0.7,1.4,1.5C4.4,27.9,3.9,28.5,3,28.5z"/>
</svg>
