<?xml version="1.0" encoding="utf-8"?>
<svg version="1.1" id="Layer_1" xmlns="http://www.w3.org/2000/svg" xmlns:xlink="http://www.w3.org/1999/xlink" x="0px" y="0px"
	 viewBox="0 0 32 32" style="enable-background:new 0 0 32 32;" xml:space="preserve">
<style type="text/css">
	.st0{fill:#FFFFFF;}
</style>
<g>
	<path class="st0" d="M0,19.33c0.67-1.81,2.06-2.95,3.65-3.87c0.98-0.57,1.93-0.83,3.13-0.29c0.79,0.35,1.84,0.2,2.76,0.13
		c0.98-0.07,1.96-0.3,3.29-0.51c1.11-1.64,2.86-2.37,5.15-1.19c0.18,0.09,0.51,0.17,0.62,0.08c2.45-1.95,5.22,0.27,7.97-0.67
		c1.78-0.61,3.87,1.45,4.97,3.48c0.15,0.28,0.3,0.56,0.46,0.84c0,0.44,0,0.89,0,1.33c-0.34-0.33-0.88-0.6-0.99-0.99
		c-0.57-2.05-2.22-2.94-3.91-3.79c-0.26-0.13-0.67-0.16-0.93-0.05c-1.62,0.7-3.18,0.63-4.83,0.02c-1.28-0.47-2.15,0.49-1.87,1.8
		c0.16,0.75,0.22,1.53,0.19,2.3c-0.1,2.11-1.6,3.57-3.6,3.6c-2,0.02-3.5-1.39-3.7-3.51c-0.24-2.48-0.22-2.42-2.61-1.87
		c-0.89,0.21-1.9,0.22-2.8,0.05c-2.67-0.51-4.94,0.74-5.89,3.29C0.88,19.97,0.36,20.29,0,20.66C0,20.22,0,19.78,0,19.33z
		 M18.77,17.28c-0.01-2.01-1.06-3.29-2.71-3.32c-1.73-0.03-2.85,1.29-2.83,3.37c0.01,1.98,1.08,3.29,2.72,3.32
		C17.66,20.69,18.78,19.35,18.77,17.28z"/>
	<path class="st0" d="M7.73,27.28c0.32-0.95,0.46-2.04,1-2.84c1.47-2.16,3.7-2.8,6.31-2.26c0.86,0.18,1.88,0,2.74-0.28
		c2.65-0.86,6.78,2.58,6.29,5.33c-0.01,0.08-0.17,0.13,0,0.01c-1.25-1.36-2.35-2.8-3.71-3.92c-0.57-0.47-1.69-0.33-2.56-0.36
		c-1.03-0.03-2.11,0.26-3.1,0.06c-2.53-0.52-4.93,0.73-5.81,3.24c-0.14,0.4-0.31,0.79-0.46,1.19C8.2,27.38,7.96,27.33,7.73,27.28z"
		/>
	<path class="st0" d="M4.59,10.38c0.04-2.58,1.46-4.14,3.74-4.1c2.27,0.04,3.68,1.76,3.63,4.41c-0.05,2.49-1.59,4.09-3.85,4.02
		C5.87,14.64,4.55,13.01,4.59,10.38z M11.04,10.64c0.05-2.07-1.03-3.43-2.73-3.46C6.66,7.15,5.5,8.43,5.43,10.35
		c-0.07,1.99,1.08,3.42,2.77,3.45C9.89,13.83,11,12.59,11.04,10.64z"/>
	<path class="st0" d="M27.41,8.55c-0.03,2.6-1.4,4.12-3.71,4.11c-2.3-0.01-3.71-1.69-3.66-4.34c0.05-2.5,1.56-4.11,3.82-4.06
		C26.09,4.31,27.44,5.94,27.41,8.55z M26.58,8.52c0.02-1.97-1.2-3.42-2.86-3.41c-1.62,0.01-2.74,1.34-2.76,3.3
		c-0.02,2.08,1.06,3.37,2.81,3.36C25.43,11.76,26.56,10.45,26.58,8.52z"/>
</g>
</svg>
