<?xml version="1.0" encoding="utf-8"?>
<svg version="1.1" id="Layer_1" xmlns="http://www.w3.org/2000/svg" xmlns:xlink="http://www.w3.org/1999/xlink" x="0px" y="0px"
	 viewBox="0 0 32 32" style="enable-background:new 0 0 32 32;" xml:space="preserve">
<style type="text/css">
	.st0{fill:#FFFFFF;}
</style>
<path class="st0" d="M32,16.31c-3.71,2.07-7.33,4.67-11.17,6.16c-3.27,1.27-6.04,1.16-9.97-0.12C6.67,20.97,3.61,18.33,0,16.31
	c0-0.11,0-0.22,0-0.33c3.71-2.08,7.35-4.31,11.16-6.19c3.19-1.57,6.66-1.51,9.83,0.05c3.76,1.85,7.35,4.08,11.01,6.14
	C32,16.08,32,16.2,32,16.31z M30.8,16.05c-2.62-1.53-4.92-2.88-7.38-4.33C24,18,21.03,21.54,16.3,21.64C11.15,21.75,8,18,8.55,11.74
	c-2.44,1.44-4.75,2.8-7.33,4.31c4.09,2.76,7.97,5.2,12.51,6.22c1.51,0.34,3.24,0.32,4.74-0.04C22.9,21.17,26.71,18.79,30.8,16.05z
	 M16.06,20.75c4.36-0.03,7.57-4.27,6.31-8.36c-0.15-0.5-0.43-1.14-0.84-1.35C17.87,9.2,14.16,9.2,10.5,11.02
	c-0.41,0.2-0.71,0.83-0.87,1.33C8.32,16.5,11.61,20.78,16.06,20.75z M15.98,17.98c-2.21-0.01-3.93-1.71-3.92-3.87
	c0.02-2.17,1.74-3.85,3.96-3.84c2.2,0,3.93,1.72,3.91,3.89C19.92,16.33,18.21,17.99,15.98,17.98z M16,11.18
	c-1.61,0-2.98,1.33-3,2.92c-0.02,1.59,1.3,2.95,2.92,2.98c1.69,0.04,3.12-1.34,3.09-2.98C18.99,12.52,17.61,11.18,16,11.18z"/>
</svg>
