<?xml version="1.0" encoding="utf-8"?>
<svg version="1.1" id="Layer_1" xmlns="http://www.w3.org/2000/svg" xmlns:xlink="http://www.w3.org/1999/xlink" x="0px" y="0px"
	 viewBox="0 0 32 32" style="enable-background:new 0 0 32 32;" xml:space="preserve">
<style type="text/css">
	.st0{fill:#FFFFFF;}
</style>
<g>
	<path class="st0" d="M24.31,30.35c-2.99-3.27-5.94-6.57-9.15-10.12c-0.83,0.93-1.58,1.79-2.35,2.63c-2.33,2.53-4.66,5.05-7,7.57
		c-1.15,1.24-3.25,1.3-4.43,0.16c-1.18-1.14-1.19-3.29,0.03-4.44c2.91-2.72,5.87-5.41,8.78-8.14c0.69-0.65,1.87-1.12,1.07-2.5
		c-0.12-0.2,0.32-0.74,0.54-1.19C9.86,12.4,7.93,10.49,6,8.58c-0.12-0.12-0.23-0.3-0.37-0.33C2.81,7.68,1.77,5.17,0.16,3.27
		c0-0.22,0-0.44,0-0.67C0.54,2.3,0.99,2.05,1.27,1.67c0.9-1.21,1.74-1.12,2.91-0.26c1.53,1.12,3.1,2.1,3.56,4.14
		c0.1,0.43,0.56,0.8,0.91,1.15c1.28,1.3,2.58,2.59,3.87,3.88c1.93,1.93,3.59,1.95,5.63,0.07c0.61-0.56,1.27-1.08,1.82-1.69
		c0.26-0.29,0.5-0.76,0.47-1.12c-0.38-4.8,0.2-5.87,4.38-7.89c0.67,0,1.33,0,2,0c-0.07,0.43-0.02,0.95-0.25,1.26
		c-0.46,0.62-1.07,1.12-1.62,1.67c-0.91,0.93-0.92,3.33-0.03,4.18c0.9,0.86,3.21,0.77,4.15-0.15c0.75-0.73,1.51-1.45,2.41-2.32
		c0.21,0.59,0.3,0.73,0.32,0.88c0.36,3.99-2.85,6.76-7.1,6.16c-0.5-0.07-1.22-0.16-1.5,0.11c-1.19,1.12-2.26,2.38-3.42,3.64
		c3.65,3.3,7.11,6.5,10.65,9.6c1.07,0.94,1.16,1.87,0.71,3.1c-0.82,2.2-2.63,3.33-4.64,3.68C25.33,31.73,24.85,30.94,24.31,30.35z
		 M12.46,15.63c0.03,0.11,0.03,0.24,0.1,0.32c4.3,4.79,8.57,9.59,12.93,14.32c0.36,0.39,1.43,0.58,1.87,0.33
		c0.97-0.55,1.85-1.35,2.57-2.21c0.88-1.05,0.74-2.05-0.43-2.98c-1.52-1.21-2.89-2.58-4.34-3.88c-3.28-2.95-6.56-5.9-9.73-8.76
		C14.35,13.81,13.4,14.72,12.46,15.63z M14.55,19.69c-0.79-0.92-1.42-1.66-2.1-2.44c-3.61,3.34-7.02,6.49-10.43,9.64
		C0.96,27.87,1.23,29.01,2,29.83c0.75,0.79,1.89,1.35,2.91,0.26C8.13,26.67,11.3,23.21,14.55,19.69z M24.87,1.28
		c-2.68,0.4-4.44,3.07-3.6,5.96c0.34,1.17,0.1,1.85-0.77,2.58c-1.14,0.95-2.18,2.02-3.38,3.16c0.67,0.61,1.26,1.15,1.96,1.78
		c0.97-1.03,1.92-1.95,2.76-2.96c0.88-1.05,1.69-1.52,3.22-1.06c2.73,0.82,5.52-1.28,5.63-3.86c-0.93,0.66-1.84,1.8-2.87,1.92
		c-1.15,0.14-2.68-0.33-3.54-1.1c-0.74-0.66-1.14-2.16-1.01-3.2C23.41,3.35,24.33,2.3,24.87,1.28z M2.54,1.65
		C2.17,2.27,1.42,3.11,1.58,3.37C2.32,4.57,3.2,5.72,4.25,6.65C5.41,7.7,6.88,8.4,8.07,9.42c1.38,1.19,2.59,2.57,3.92,3.83
		c0.2,0.19,0.63,0.15,0.95,0.21c-0.02-0.37,0.1-0.88-0.09-1.08c-1.56-1.65-3.2-3.22-4.78-4.85C7.58,7.02,7.01,6.45,6.83,5.81
		C6.23,3.62,4.43,2.78,2.54,1.65z"/>
	<path class="st0" d="M5.55,28.64c-0.81,0.57-1.28,1.17-1.75,1.17c-0.38,0-1.12-0.78-1.06-1.11c0.08-0.48,0.67-1.1,1.15-1.22
		C4.23,27.39,4.75,28.04,5.55,28.64z"/>
</g>
</svg>
