<?xml version="1.0" encoding="UTF-8" standalone="no"?>
<svg
   xmlns:dc="http://purl.org/dc/elements/1.1/"
   xmlns:cc="http://creativecommons.org/ns#"
   xmlns:rdf="http://www.w3.org/1999/02/22-rdf-syntax-ns#"
   xmlns:svg="http://www.w3.org/2000/svg"
   xmlns="http://www.w3.org/2000/svg"
   xmlns:sodipodi="http://sodipodi.sourceforge.net/DTD/sodipodi-0.dtd"
   xmlns:inkscape="http://www.inkscape.org/namespaces/inkscape"
   version="1.1"
   id="Layer_1"
   x="0px"
   y="0px"
   viewBox="0 0 32 32"
   style="enable-background:new 0 0 32 32;"
   xml:space="preserve"
   sodipodi:docname="mediatum_edit_all_black.svg"
   inkscape:version="0.92.3 (2405546, 2018-03-11)"><metadata
   id="metadata27"><rdf:RDF><cc:Work
       rdf:about=""><dc:format>image/svg+xml</dc:format><dc:type
         rdf:resource="http://purl.org/dc/dcmitype/StillImage" /></cc:Work></rdf:RDF></metadata><defs
   id="defs25" /><sodipodi:namedview
   pagecolor="#ffffff"
   bordercolor="#666666"
   borderopacity="1"
   objecttolerance="10"
   gridtolerance="10"
   guidetolerance="10"
   inkscape:pageopacity="0"
   inkscape:pageshadow="2"
   inkscape:window-width="1920"
   inkscape:window-height="1127"
   id="namedview23"
   showgrid="false"
   inkscape:zoom="7.375"
   inkscape:cx="16"
   inkscape:cy="16"
   inkscape:window-x="0"
   inkscape:window-y="0"
   inkscape:window-maximized="1"
   inkscape:current-layer="g20" />
<style
   type="text/css"
   id="style2">
	.st0{fill:#000000;}
</style>
<g
   id="g20">
	<path
   class="st0"
   d="m 8.99,0 c 5,0 10,0 15,0 0.31,0.43 0.57,0.91 0.94,1.28 1.63,1.66 3.25,3.34 4.94,4.93 0.78,0.74 1.12,1.5 1.11,2.59 -0.06,5.15 -0.02,10.3 -0.03,15.45 0,0.53 -0.05,1.07 -0.08,1.78 -1.04,0 -1.94,0 -2.85,0 -0.05,1.05 -0.09,1.92 -0.14,2.97 -1.35,0 -2.59,0 -3.88,0 0,1.12 0,2.06 0,2.99 -7.67,0 -15.33,0 -23,0 0,-8.62 0,-17.23 0,-26.03 1.5,0 2.74,0 3.98,0 0.05,-1.06 0.09,-1.92 0.14,-2.97 1.35,0 2.59,0 3.88,0 C 8.99,1.87 8.99,0.93 8.99,0 Z m 14,7.97 c 0,-2.43 0,-4.67 0,-6.91 -4.44,0 -8.67,0 -12.95,0 0,8.01 0,15.91 0,23.83 6.7,0 13.31,0 19.86,0 0,-5.71 0,-11.28 0,-16.93 -2.28,0.01 -4.44,0.01 -6.91,0.01 z m 3.98,17.9 c -6.08,0 -11.98,0 -18,0 0,-7.38 0,-14.57 0,-21.82 -1.04,0 -1.95,0 -2.88,0 0,8.04 0,15.98 0,23.87 7.05,0 13.95,0 20.88,0 0,-0.66 0,-1.21 0,-2.05 z M 2.01,30.94 c 7.09,0 13.99,0 20.92,0 0,-0.68 0,-1.26 0,-2.03 -6,0 -11.9,0 -17.98,0 0,-7.42 0,-14.65 0,-21.81 -1.1,0 -2.01,0 -2.93,0 C 2.01,15.09 2.01,22.95 2.01,30.94 Z M 24.04,2.03 c 0,1.7 0,3.27 0,4.89 1.68,0 3.28,0 4.94,0 C 27.3,5.26 25.72,3.7 24.04,2.03 Z"
   id="path14"
   inkscape:connector-curvature="0"
   style="fill:#000000" />
	<path
   class="st0"
   d="m 12,12.64 c 0.39,-0.7 0.64,-1.43 1.13,-1.92 0.35,-0.36 1.08,-0.65 1.53,-0.53 1.3,0.32 2.11,-0.13 2.5,-1.44 0.12,-0.42 0.72,-1 1.09,-0.99 0.86,0.01 2.2,0.06 2.49,0.57 1.3,2.29 1.19,2.35 3.55,1.47 0.43,0.71 0.99,1.41 1.29,2.21 0.13,0.36 -0.13,1.04 -0.44,1.35 -0.97,0.99 -1.09,2.03 0,2.8 1.16,0.83 0.42,1.52 0.01,2.25 -0.42,0.74 -0.69,1.68 -1.96,1.01 -1.04,-0.55 -2.17,0.15 -2.27,1.39 -0.11,1.4 -1.04,1.2 -1.91,1.18 C 18.18,21.97 17.2,22.3 17.08,20.86 16.97,19.51 15.93,19.04 14.67,19.39 14.24,19.51 13.42,19.33 13.24,19.03 12.81,18.29 12.17,17.1 12.47,16.6 13.85,14.25 13.96,14.31 12,12.64 Z m 1.27,-0.35 c 1.95,1.84 1.5,3.44 0,5.06 0.28,0.41 0.55,0.81 0.81,1.19 2.06,-0.78 3.55,0.11 4.23,2.54 0.5,-0.02 1.03,-0.05 1.53,-0.07 0.37,-2.68 2.02,-3.04 4.22,-2.57 0.23,-0.42 0.46,-0.84 0.67,-1.23 -1.71,-1.52 -1.71,-3.28 0.02,-4.96 -0.28,-0.41 -0.57,-0.84 -0.85,-1.24 -2.07,0.77 -3.49,-0.08 -4.2,-2.47 -0.5,0.02 -1.02,0.05 -1.51,0.07 -0.4,2.21 -1.94,3.1 -4.19,2.47 -0.24,0.39 -0.48,0.8 -0.73,1.21 z"
   id="path16"
   inkscape:connector-curvature="0"
   style="fill:#000000" />
	<circle
   class="st0"
   cx="19"
   cy="15"
   r="2"
   id="circle18"
   style="fill:#000000" />
</g>
</svg>