<?xml version="1.0" encoding="utf-8"?>
<svg version="1.1" id="Layer_1" xmlns="http://www.w3.org/2000/svg" xmlns:xlink="http://www.w3.org/1999/xlink" x="0px" y="0px"
	 viewBox="0 0 32 32" style="enable-background:new 0 0 32 32;" xml:space="preserve">
<style type="text/css">
	.st0{fill:#FFFFFF;}
</style>
<g>
	<path class="st0" d="M8.99,0c5,0,10,0,15,0c0.31,0.43,0.57,0.91,0.94,1.28c1.63,1.66,3.25,3.34,4.94,4.93
		c0.78,0.74,1.12,1.5,1.11,2.59c-0.06,5.15-0.02,10.3-0.03,15.45c0,0.53-0.05,1.07-0.08,1.78c-1.04,0-1.94,0-2.85,0
		c-0.05,1.05-0.09,1.92-0.14,2.97c-1.35,0-2.59,0-3.88,0c0,1.12,0,2.06,0,2.99c-7.67,0-15.33,0-23,0c0-8.62,0-17.23,0-26.03
		c1.5,0,2.74,0,3.98,0c0.05-1.06,0.09-1.92,0.14-2.97c1.35,0,2.59,0,3.88,0C8.99,1.87,8.99,0.93,8.99,0z M22.99,7.97
		c0-2.43,0-4.67,0-6.91c-4.44,0-8.67,0-12.95,0c0,8.01,0,15.91,0,23.83c6.7,0,13.31,0,19.86,0c0-5.71,0-11.28,0-16.93
		C27.62,7.97,25.46,7.97,22.99,7.97z M26.97,25.87c-6.08,0-11.98,0-18,0c0-7.38,0-14.57,0-21.82c-1.04,0-1.95,0-2.88,0
		c0,8.04,0,15.98,0,23.87c7.05,0,13.95,0,20.88,0C26.97,27.26,26.97,26.71,26.97,25.87z M2.01,30.94c7.09,0,13.99,0,20.92,0
		c0-0.68,0-1.26,0-2.03c-6,0-11.9,0-17.98,0c0-7.42,0-14.65,0-21.81c-1.1,0-2.01,0-2.93,0C2.01,15.09,2.01,22.95,2.01,30.94z
		 M24.04,2.03c0,1.7,0,3.27,0,4.89c1.68,0,3.28,0,4.94,0C27.3,5.26,25.72,3.7,24.04,2.03z"/>
	<path class="st0" d="M12,12.64c0.39-0.7,0.64-1.43,1.13-1.92c0.35-0.36,1.08-0.65,1.53-0.53c1.3,0.32,2.11-0.13,2.5-1.44
		c0.12-0.42,0.72-1,1.09-0.99c0.86,0.01,2.2,0.06,2.49,0.57c1.3,2.29,1.19,2.35,3.55,1.47c0.43,0.71,0.99,1.41,1.29,2.21
		c0.13,0.36-0.13,1.04-0.44,1.35c-0.97,0.99-1.09,2.03,0,2.8c1.16,0.83,0.42,1.52,0.01,2.25c-0.42,0.74-0.69,1.68-1.96,1.01
		c-1.04-0.55-2.17,0.15-2.27,1.39c-0.11,1.4-1.04,1.2-1.91,1.18c-0.83-0.02-1.81,0.31-1.93-1.13c-0.11-1.35-1.15-1.82-2.41-1.47
		c-0.43,0.12-1.25-0.06-1.43-0.36c-0.43-0.74-1.07-1.93-0.77-2.43C13.85,14.25,13.96,14.31,12,12.64z M13.27,12.29
		c1.95,1.84,1.5,3.44,0,5.06c0.28,0.41,0.55,0.81,0.81,1.19c2.06-0.78,3.55,0.11,4.23,2.54c0.5-0.02,1.03-0.05,1.53-0.07
		c0.37-2.68,2.02-3.04,4.22-2.57c0.23-0.42,0.46-0.84,0.67-1.23c-1.71-1.52-1.71-3.28,0.02-4.96c-0.28-0.41-0.57-0.84-0.85-1.24
		c-2.07,0.77-3.49-0.08-4.2-2.47c-0.5,0.02-1.02,0.05-1.51,0.07c-0.4,2.21-1.94,3.1-4.19,2.47C13.76,11.47,13.52,11.88,13.27,12.29z
		"/>
	<circle class="st0" cx="19" cy="15" r="2"/>
</g>
</svg>
