<?xml version="1.0" encoding="utf-8"?>
<svg version="1.1" id="Layer_1" xmlns="http://www.w3.org/2000/svg" xmlns:xlink="http://www.w3.org/1999/xlink" x="0px" y="0px"
	 viewBox="0 0 32 32" style="enable-background:new 0 0 32 32;" xml:space="preserve">
<style type="text/css">
	.st0{fill:#000000;}
</style>
<g>
	<path class="st0" d="M16,32c0-0.83,0-1.82,0-3c-2,0-3.95,0.02-6,0c0-6.83,0-13.9,0-21C8,8,6,8,4,8c0-2.64,0-5.39,0-8
		c4.33,0,8.67,0,13,0c0,2.5-0.01,5.16-0.01,8.01C14.74,8.01,12.92,7.97,11,8c0,2.53,0,5.32,0,8c1.46,0,3.28,0,5,0c0-1,0-3,0-4.03
		c4.24,0,8.67,0.04,13,0.04c0,2.55,0,5.36,0,7.99c-4.16,0-8.66,0-13,0c0-0.75,0.03-1.92,0-3c-1.42,0-3.32,0-5,0c0,3.46,0,7.3,0,11
		c1.47,0,3.19,0,5,0c0-1.21-0.02-2.65-0.02-3.99c4.47,0,8.58,0,13.05,0c0,2.66-0.02,5.36-0.02,7.99C24.67,32,20.33,32,16,32z
		 M5.17,1.08c0,2.2,0,3.99,0,5.67c3.73,0,7.29,0,10.67,0c0-2.03,0-3.82,0-5.67C12.23,1.08,8.79,1.08,5.17,1.08z M17,13
		c0,2.22,0,4.08,0,6c1.97,0,3.95,0.02,5.75-0.01c1.76-0.02,3.69,0.05,5.25,0.01c0-2.16,0-4.16,0-6C24.39,13,20.61,13,17,13z
		 M17.09,30.84c3.86,0,7.3,0,10.66,0c0-2.07,0-3.96,0-5.68c-3.69,0-7.13,0-10.66,0C17.09,27.1,17.09,28.87,17.09,30.84z"/>
</g>
</svg>
