<?xml version="1.0" encoding="UTF-8" standalone="no"?>
<svg
   xmlns:dc="http://purl.org/dc/elements/1.1/"
   xmlns:cc="http://creativecommons.org/ns#"
   xmlns:rdf="http://www.w3.org/1999/02/22-rdf-syntax-ns#"
   xmlns:svg="http://www.w3.org/2000/svg"
   xmlns="http://www.w3.org/2000/svg"
   xmlns:sodipodi="http://sodipodi.sourceforge.net/DTD/sodipodi-0.dtd"
   xmlns:inkscape="http://www.inkscape.org/namespaces/inkscape"
   version="1.1"
   x="0px"
   y="0px"
   viewBox="0 0 96 96"
   style="enable-background:new 0 0 96 96;"
   xml:space="preserve"
   id="svg25"
   sodipodi:docname="mediatum_delete_black.svg"
   inkscape:version="0.92.3 (2405546, 2018-03-11)"><metadata
   id="metadata31"><rdf:RDF><cc:Work
       rdf:about=""><dc:format>image/svg+xml</dc:format><dc:type
         rdf:resource="http://purl.org/dc/dcmitype/StillImage" /></cc:Work></rdf:RDF></metadata><defs
   id="defs29" /><sodipodi:namedview
   pagecolor="#ffffff"
   bordercolor="#666666"
   borderopacity="1"
   objecttolerance="10"
   gridtolerance="10"
   guidetolerance="10"
   inkscape:pageopacity="0"
   inkscape:pageshadow="2"
   inkscape:window-width="1920"
   inkscape:window-height="1127"
   id="namedview27"
   showgrid="false"
   inkscape:zoom="2.4583333"
   inkscape:cx="48"
   inkscape:cy="48"
   inkscape:window-x="0"
   inkscape:window-y="0"
   inkscape:window-maximized="1"
   inkscape:current-layer="g22" />
<style
   type="text/css"
   id="style2">
	.st0{fill:#000000;}
	.st1{fill:none;stroke:#000000;stroke-width:3;stroke-miterlimit:10;}
</style>


<g
   id="Layer_2">
	<g
   id="g22">
		<path
   class="st0"
   d="m 25.2,60.57 c 0,-7.48 0.02,-14.97 -0.07,-22.44 -0.05,-4.05 3.22,-4.05 5.95,-4.05 3,0 5.92,-0.09 5.92,3.82 -0.01,15.46 -0.1,30.92 0,46.38 0.02,2.85 -1.06,3.66 -3.81,3.73 -7.98,0.22 -7.98,0.33 -7.98,-7.5 C 25.2,73.87 25.2,67.22 25.2,60.57 Z M 33.93,37.3 c -2.14,0 -3.87,0 -5.72,0 0,16.02 0,31.71 0,47.66 1.99,0 3.72,0 5.72,0 0,-15.91 0,-31.61 0,-47.66 z"
   id="path12"
   inkscape:connector-curvature="0"
   style="fill:#000000" />
		<path
   class="st0"
   d="m 54.87,61.02 c 0,7.48 -0.17,14.97 0.07,22.44 0.12,3.58 -1.18,4.54 -4.6,4.49 -7.22,-0.1 -7.22,0.07 -7.22,-7.27 0,-13.96 0.22,-27.93 -0.11,-41.89 -0.12,-4.99 2.5,-4.84 5.89,-4.69 3.08,0.14 6.38,-0.82 6.08,4.48 -0.41,7.46 -0.11,14.96 -0.11,22.44 z m -3.04,23.92 c 0,-16.26 0,-31.95 0,-47.78 -2.03,0 -3.76,0 -5.58,0 0,16.1 0,31.92 0,47.78 2,0 3.62,0 5.58,0 z"
   id="path14"
   inkscape:connector-curvature="0"
   style="fill:#000000" />
		<path
   class="st0"
   d="M 61.2,60.48 C 61.2,53 61.41,45.51 61.13,38.04 60.95,33.3 64.28,34 67,34 c 3,0 6,-1 6,3.82 0,15.46 -0.1,30.92 -0.01,46.38 0.02,2.86 -1.07,3.65 -3.81,3.73 -7.98,0.21 -7.98,0.33 -7.98,-7.5 0,-6.65 0,-13.3 0,-19.95 z m 3.1,-23.36 c 0,16.06 0,31.88 0,47.65 2.08,0 3.81,0 5.64,0 0,-16.03 0,-31.72 0,-47.65 -2,0 -3.73,0 -5.64,0 z"
   id="path16"
   inkscape:connector-curvature="0"
   style="fill:#000000" />
		<polygon
   class="st1"
   points="36,15 39,10 39,6 58,6 58,10 62,15 86,15 86,32 81,32 81,95 18,95 17,95 18,32 12,32 12,15 "
   id="polygon18"
   style="fill:none;stroke:#000000;stroke-width:3;stroke-miterlimit:10" />
		<line
   class="st1"
   x1="12"
   y1="23"
   x2="86"
   y2="23"
   id="line20"
   style="fill:none;stroke:#000000;stroke-width:3;stroke-miterlimit:10" />
	</g>
</g>
</svg>