<?xml version="1.0" encoding="utf-8"?>
<svg version="1.1" xmlns="http://www.w3.org/2000/svg" xmlns:xlink="http://www.w3.org/1999/xlink" x="0px" y="0px"
	 viewBox="0 0 96 96" style="enable-background:new 0 0 96 96;" xml:space="preserve">
<style type="text/css">
	.st1{fill:none;stroke:#000000;stroke-width:4;stroke-miterlimit:10;}
</style>
<g id="Layer_3">
	<g>
		<path class="st1" d="M79.39,93H16.61c-6.6,0-12-5.4-12-12V15c0-6.6,5.4-12,12-12h62.79c6.6,0,12,5.4,12,12v66
			C91.39,87.6,85.99,93,79.39,93z"/>
		<circle class="st1" cx="47.46" cy="24.43" r="7.5"/>
		<circle class="st1" cx="29.25" cy="49.07" r="7.5"/>
		<circle class="st1" cx="61.39" cy="73.71" r="7.5"/>
		<line class="st1" x1="14.25" y1="24.43" x2="38.89" y2="24.43"/>
		<line class="st1" x1="56.04" y1="24.43" x2="80.68" y2="24.43"/>
		<line class="st1" x1="20.68" y1="49.07" x2="14.25" y2="49.07"/>
		<line class="st1" x1="37.82" y1="49.07" x2="80.68" y2="49.07"/>
		<line class="st1" x1="69.96" y1="72.64" x2="80.68" y2="72.64"/>
		<line class="st1" x1="51.75" y1="72.64" x2="14.25" y2="72.64"/>
	</g>
</g>
<g id="Layer_2">
</g>
</svg>
