<?xml version="1.0" encoding="utf-8"?>
<svg version="1.1" xmlns="http://www.w3.org/2000/svg" xmlns:xlink="http://www.w3.org/1999/xlink" x="0px" y="0px"
	 viewBox="0 0 96 96" style="enable-background:new 0 0 96 96;" xml:space="preserve">
<style type="text/css">
	.st0{fill:#FFFFFF;}
	.st1{fill:none;stroke:#FFFFFF;stroke-width:3;stroke-miterlimit:10;}
</style>
<g id="Layer_2">
	<g>
		<path class="st0" d="M25.2,60.57c0-7.48,0.02-14.97-0.07-22.44c-0.05-4.05,3.22-4.05,5.95-4.05c3,0,5.92-0.09,5.92,3.82
			c-0.01,15.46-0.1,30.92,0,46.38c0.02,2.85-1.06,3.66-3.81,3.73c-7.98,0.22-7.98,0.33-7.98-7.5C25.2,73.87,25.2,67.22,25.2,60.57z
			 M33.93,37.3c-2.14,0-3.87,0-5.72,0c0,16.02,0,31.71,0,47.66c1.99,0,3.72,0,5.72,0C33.93,69.05,33.93,53.35,33.93,37.3z"/>
		<path class="st0" d="M54.87,61.02c0,7.48-0.17,14.97,0.07,22.44c0.12,3.58-1.18,4.54-4.6,4.49c-7.22-0.1-7.22,0.07-7.22-7.27
			c0-13.96,0.22-27.93-0.11-41.89c-0.12-4.99,2.5-4.84,5.89-4.69c3.08,0.14,6.38-0.82,6.08,4.48
			C54.57,46.04,54.87,53.54,54.87,61.02z M51.83,84.94c0-16.26,0-31.95,0-47.78c-2.03,0-3.76,0-5.58,0c0,16.1,0,31.92,0,47.78
			C48.25,84.94,49.87,84.94,51.83,84.94z"/>
		<path class="st0" d="M61.2,60.48c0-7.48,0.21-14.97-0.07-22.44C60.95,33.3,64.28,34,67,34c3,0,6-1,6,3.82
			c0,15.46-0.1,30.92-0.01,46.38c0.02,2.86-1.07,3.65-3.81,3.73c-7.98,0.21-7.98,0.33-7.98-7.5C61.2,73.78,61.2,67.13,61.2,60.48z
			 M64.3,37.12c0,16.06,0,31.88,0,47.65c2.08,0,3.81,0,5.64,0c0-16.03,0-31.72,0-47.65C67.94,37.12,66.21,37.12,64.3,37.12z"/>
		<polygon class="st1" points="12,32 12,15 36,15 39,10 39,6 58,6 58,10 62,15 86,15 86,32 81,32 81,95 18,95 17,95 18,32 		"/>
		<line class="st1" x1="12" y1="23" x2="86" y2="23"/>
	</g>
</g>
</svg>
